Coordinates
version=1
nRows=9
nColumns=36
inDegrees=yes

Units are S.I. units (second, meters, Newtons, ...)
If the header above contains a line with 'inDegrees', this indicates whether rotational values are in degrees (yes) or radians (no).

endheader
time	pelvis_tilt	pelvis_list	pelvis_rotation	pelvis_tx	pelvis_ty	pelvis_tz	hip_flexion_r	hip_adduction_r	hip_rotation_r	knee_angle_r	knee_angle_r_beta	ankle_angle_r	subtalar_angle_r	mtp_angle_r	hip_flexion_l	hip_adduction_l	hip_rotation_l	knee_angle_l	knee_angle_l_beta	ankle_angle_l	subtalar_angle_l	mtp_angle_l	lumbar_extension	lumbar_bending	lumbar_rotation	arm_flex_r	arm_add_r	arm_rot_r	elbow_flex_r	pro_sup_r	arm_flex_l	arm_add_l	arm_rot_l	elbow_flex_l	pro_sup_l
      1.87916670	     -1.00745987	     -0.15109149	      3.21837256	     -0.96024005	      1.21782508	     -0.09991937	     -2.97004434	     -0.77119797	      4.28478671	      0.85923926	      0.01499655	      4.52349175	    -13.67507019	     -7.49999987	     -0.54383644	     -0.22468935	      1.68788929	      4.24235194	      0.07404301	      7.40905086	     -6.03279830	     -7.49999987	      0.56301679	      0.31418197	     -1.06235409	      1.62969545	     -4.62244985	      9.26781433	     29.30696565	     66.58765029	      3.35290391	     -6.35162710	     22.22148628	     29.35665865	     66.00218572
      1.88333330	     -1.18678115	     -0.16359557	      3.14909086	     -0.96015498	      1.21821607	     -0.09899084	     -2.71224044	     -0.78009992	      4.51255295	      0.87087783	      0.01519969	      4.61349244	    -13.61256939	     -7.49999987	     -0.29325062	     -0.16417991	      1.84876587	      4.22256070	      0.07369759	      7.51187952	     -5.87597333	     -7.49999987	      0.74730770	      0.33317154	     -1.04250402	      1.58962359	     -4.69451178	      9.46651270	     29.66581054	     66.37198707	      3.33907672	     -6.37228820	     22.22820251	     29.56773713	     65.88945082
      1.88750000	     -1.34884874	     -0.16810730	      3.12531434	     -0.96238511	      1.21711223	     -0.09950211	     -2.43480067	     -0.79780842	      4.67052721	      0.92094364	      0.01607350	      4.64888056	    -13.56623283	     -7.49999987	      0.01816870	     -0.12602374	      2.07702880	      4.40461649	      0.07687506	      7.60720267	     -6.11050438	     -7.49999987	      0.85431977	      0.33627442	     -1.08324451	      1.59363584	     -4.75471461	      9.61410162	     30.02855244	     66.17455916	      3.36993631	     -6.40059196	     22.17980217	     29.75272011	     65.77425060
      1.89166670	     -1.51361521	     -0.18403328	      3.01345846	     -0.96170826	      1.21999116	     -0.09783578	     -2.17007814	     -0.77513998	      4.88563071	      0.96288377	      0.01680549	      4.58106558	    -13.54141576	     -7.49999987	      0.29472760	     -0.16131934	      2.15253229	      4.57128150	      0.07978391	      7.56621143	     -6.16145841	     -7.49999987	      1.00394459	      0.33126243	     -1.02252931	      1.61564160	     -4.78866181	      9.87560999	     30.24594026	     66.02386750	      3.40578330	     -6.41954620	     22.18300757	     29.85116476	     65.73385399
      1.89583330	     -1.62265868	     -0.20851147	      2.93721529	     -0.96297506	      1.21877046	     -0.09827808	     -1.96034432	     -0.75904271	      4.94066196	      1.01919486	      0.01778831	      4.47913674	    -13.52761125	     -7.49999987	      0.54209376	     -0.19220248	      2.22610956	      4.80923999	      0.08393707	      7.51681766	     -6.36839728	     -7.49999987	      0.99046536	      0.38170853	     -0.98211287	      1.67692973	     -4.83742158	      9.94628669	     30.51625951	     66.34887018	      3.47175011	     -6.41777754	     22.03481203	     30.00369974	     66.11010521
      1.90000000	     -1.87664242	     -0.24251786	      2.82332938	     -0.96389386	      1.21089572	     -0.09827975	     -1.56132719	     -0.73550560	      5.06248965	      1.14913775	      0.02005624	      4.39006909	    -13.75194576	     -7.49999987	      1.06578179	     -0.24760233	      2.26197571	      5.26022770	      0.09180829	      7.52042903	     -6.69373051	     -7.49999987	      1.21079553	      0.41153944	     -1.00877914	      1.73640159	     -4.78552578	      9.67459610	     30.57735189	     66.20191260	      3.49354271	     -6.28634961	     21.36788394	     29.96942911	     66.01484509
      1.90416670	     -1.93052867	     -0.27981132	      2.71352102	     -0.96408335	      1.21441236	     -0.09712765	     -1.36315556	     -0.66354009	      5.15521637	      1.26275832	      0.02203929	      4.25937053	    -14.12607455	     -7.49999987	      1.34764087	     -0.32586526	      2.35112038	      5.67136712	      0.09898403	      7.47179485	     -7.09999992	     -7.49999987	      1.05341521	      0.43524970	     -0.93881064	      1.82793396	     -4.92774421	     10.30208860	     31.18540769	     66.10204208	      3.59666434	     -6.45989896	     21.77942692	     30.42174820	     66.03274827
      1.90833330	     -2.20620769	     -0.30596405	      2.64046223	     -0.96300669	      1.21551546	     -0.09714458	     -0.95559832	     -0.61462848	      5.21061559	      1.38175423	      0.02411616	      4.17316775	    -14.34715066	     -7.49999987	      1.87878023	     -0.38784964	      2.49036061	      6.14861769	      0.10731362	      7.32222018	     -7.59607208	     -7.49999987	      1.25565845	      0.44830784	     -0.84749647	      1.84602130	     -4.95585079	     10.54960169	     31.38608653	     66.52818457	      3.66061284	     -6.48598971	     21.83089709	     30.55408619	     66.56574199
      1.91250000	     -2.39095699	     -0.28650603	      2.55220280	     -0.96254242	      1.21578188	     -0.09742802	     -0.66315845	     -0.63818128	      4.94517611	      1.53516195	      0.02679363	      4.40449819	    -13.99133655	     -7.49999987	      2.30499479	     -0.41830546	      2.25733935	      6.64591750	      0.11599314	      7.49603909	     -7.52211772	     -7.49999987	      1.41636819	      0.40811763	     -0.83584711	      1.91525437	     -4.85566566	     10.37896036	     31.41244684	     66.03669672	      3.70551796	     -6.40889667	     21.51693036	     30.42539613	     66.09717560
